<?xml version="1.0" standalone="no"?>
<!DOCTYPE svg PUBLIC "-//W3C//DTD SVG 20010904//EN"
 "http://www.w3.org/TR/2001/REC-SVG-20010904/DTD/svg10.dtd">
<svg version="1.0" xmlns="http://www.w3.org/2000/svg"
 width="256.000000pt" height="256.000000pt" viewBox="0 0 256.000000 256.000000"
 preserveAspectRatio="xMidYMid meet">
<metadata>
Created by potrace 1.11, written by Peter Selinger 2001-2013
</metadata>
<g transform="translate(0.000000,256.000000) scale(0.100000,-0.100000)"
fill="#000000" stroke="none">
<path d="M1180 2514 c-217 -17 -492 -62 -695 -114 -160 -41 -342 -103 -363
-123 -50 -51 -56 -524 -9 -737 111 -504 407 -917 897 -1252 124 -85 252 -158
276 -158 29 0 250 138 383 238 461 348 732 785 807 1302 25 177 11 533 -24
596 -26 47 -399 155 -702 203 -237 37 -452 55 -570 45z m198 -358 c52 -27 61
-89 18 -125 -25 -21 -19 -29 26 -42 24 -6 64 -22 90 -35 61 -31 68 -30 68 7 0
95 97 103 183 14 82 -85 68 -183 -25 -177 -34 3 -35 -6 -4 -66 13 -26 29 -66
35 -90 13 -45 21 -51 42 -26 23 28 57 35 88 19 66 -34 80 -179 25 -245 -33
-38 -71 -39 -110 -3 l-28 26 -17 -56 c-9 -31 -26 -73 -38 -92 -28 -48 -27 -55
9 -55 20 0 40 -9 57 -26 21 -21 24 -32 20 -61 -12 -70 -101 -153 -165 -153
-45 0 -72 24 -72 65 0 17 -3 34 -6 38 -3 3 -38 -10 -77 -29 -39 -19 -79 -34
-89 -34 -24 0 -34 -21 -16 -34 50 -37 42 -103 -17 -130 -42 -20 -147 -21 -185
-1 -55 29 -65 76 -24 124 19 23 22 32 12 35 -7 3 -31 10 -53 16 -22 7 -60 23
-84 36 -24 13 -45 24 -47 24 -2 0 -4 -15 -4 -33 0 -18 -7 -43 -16 -55 -35 -51
-152 -9 -199 72 -46 79 -23 146 50 146 32 0 46 12 27 24 -7 4 -45 95 -66 159
-6 17 -8 17 -37 -7 -74 -63 -139 -6 -139 121 0 96 51 157 110 133 16 -7 31
-18 34 -26 10 -26 34 -15 40 20 4 19 20 61 36 93 16 32 30 61 30 66 0 4 -17 7
-37 7 -79 0 -99 74 -40 152 32 42 104 88 140 88 29 0 67 -45 67 -80 0 -36 5
-37 67 -6 26 13 67 29 91 35 23 7 42 14 42 17 0 4 -11 19 -25 36 -14 16 -25
38 -25 48 0 29 42 71 80 80 46 12 121 5 158 -14z"/>
</g>
</svg>
